<svg id="efAn1lMY8c61" xmlns="http://www.w3.org/2000/svg" xmlns:xlink="http://www.w3.org/1999/xlink" viewBox="0 0 1200 1200" shape-rendering="geometricPrecision" text-rendering="geometricPrecision" project-id="6a98b1ff20fd41398b030e5f27e9b1bc" export-id="d7b99f3a3b904c5ab36f709c78a4fc1c" cached="false"><path d="" transform="matrix(-.745213 0.666827-.666827-.745213 1525.058809 795.374463)" fill="none" stroke="#3f5787" stroke-width="2.4"/><polygon points="-0.162726,-64.058108 152.467808,-185.198707 88.792535,-1.08785 234.607092,94.149273 60.546073,93.718748 -0.162726,279.261934 -60.364488,94.149273 -234.932497,94.149273 -83.62856,-1.08785 -145.062919,-185.198707 -0.162726,-64.058108" transform="matrix(-1 0 0-1 599.837298 573.122505)" fill="#4c5ddf" stroke="#0018d1"/><g transform="matrix(.81748 0 0 0.833104 108.543372 137.682907)"><g transform="matrix(1.053228 0 0 0.808172-31.934757 127.856967)"><g transform="translate(0-44.469117)"><path d="M456.244384,569.189064c74.37315,0,161.105877,0,230.151253,0c15.504501,0,28.768906,16.548658,28.768906,40s-13.264405,40-28.768906,40c-.676449,0-57.305525,0-230.151253,0-15.325317,0-28.768906-14.889079-28.768906-40s14.173366-40,28.768906-40Z" transform="matrix(1.39039 0 0 1-194.395979 34.810936)" fill="#f6d92d" stroke="#f6ae2d" stroke-width="5"/><path d="M450.512269,569.189064c74.37315,0,169.265718,0,238.311094,0c15.504501,0,23.036793,13.417807,23.036793,36.869149s-7.532292,36.869135-23.036793,36.869135c-.676449,0-65.465365,0-238.311093,0-15.325317,0-23.088354-11.758214-23.088354-36.869135s8.492813-36.869149,23.088353-36.869149Z" transform="matrix(1.487742 0 0 0.958206-247.518732-13.056843)" fill="#f6d92d" stroke="#f6ae2d" stroke-width="5"/><path d="M459.573679,569.189064c74.37315,0,154.197442,0,223.242818,0c15.504501,0,32.348046,16.548658,32.348046,40s.000001,39.999999-7.285344,40c-84.121116,0-101.267548,0-274.113276,0-6.290445.000002-6.290445-14.889079-6.290445-40s17.502661-40,32.098201-40Z" transform="matrix(1.232391 0 0 0.845811-104.127994-16.756132)" fill="#f6d92d" stroke="#f6ae2d" stroke-width="5"/><path d="M465.639443,569.189064c74.37315,0,141.578491,0,210.623867,0c15.504501,0,38.579622,16.548658,38.579622,40s0,40-5.507923,40c-82.300848,0-190.382935,0-274.336161,0-7.684175-.000001-7.52337-14.889079-7.52337-40s23.568425-40,38.163965-40Z" transform="matrix(.957389 0 0 0.845811 53.14011-84.421012)" fill="#f6d92d" stroke="#f6ae2d" stroke-width="5"/><path d="M456.244384,569.189064c74.37315,0,161.105877,0,230.151253,0c15.504501,0,43.57729,16.548658,43.57729,40s0,40-19.590526,40c-82.303093,0-100.57409,0-273.419818,0-25.410088,0-25.410088-14.889079-25.410088-40s30.096349-40,44.691889-40Z" transform="matrix(.633279 0 0 0.845811 238.509611-149.799402)" fill="#f6d92d" stroke="#f6ae2d" stroke-width="5"/><path d="M503.480249,585.51979c74.37315,0,61.151179,0,130.196555,0c44.351431,0,79.044388,6.063814,79.044388,32.513135s.8844,32.513136-14.228619,32.513136c-76.732922-.000006-110.836443.000019-262.881308,0-14.463555-.000001-14.463555-9.362261-14.463555-32.513136s30.739866-32.513135,82.332539-32.513135Z" transform="matrix(.394862 0 0 0.845812 376.099647-220.899203)" fill="#f6d92d" stroke="#f6ae2d" stroke-width="5"/><path d="M123.217645,581.473275c0,0,3.714521-55.616779,44.999999-55.861468s45.000001,55.861468,45.000001,55.861468h-90Z" transform="translate(431.744005 102.526725)" stroke="#000" stroke-width="2.4"/></g></g><path d="" transform="translate(-422.06539 0)" fill="none" stroke="#3f5787" stroke-width="2.4"/></g></svg>
